<svg xmlns="http://www.w3.org/2000/svg" viewBox="0 0 410.17 244.99"><defs><style>.cls-1{font-size:80px;font-family:ErasITC-Bold, Eras Bold ITC;font-weight:700;}.cls-1,.cls-6{fill:#231f20;}.cls-2{fill:#2698dd;}.cls-3{fill:#fbb040;}.cls-4{fill:#d7df23;}.cls-5{fill:#f22f25;}</style></defs><title>Asset 3</title><g id="Layer_2" data-name="Layer 2"><g id="graphics"><text class="cls-1" transform="translate(109.78 161.87)">Tweety</text><path class="cls-2" d="M26.88,197.56V168.43l.7-.74c15.6-16.53,27.55-29.79,35.53-39.42,7.48-9,10.64-23.25-.08-33.19l-.47-.44C44.59,78,33,67.9,28.09,64.73l-1.21-.79V30.6l5.23,6.9A54.77,54.77,0,0,0,39,44.88L74.29,76.69l6.35,5.72c13,12.26,19.36,34.46,2.7,54.3-1.42,1.7-39.7,42.84-51.4,55.41Z"/><path class="cls-3" d="M75.25,14.42H71A19.8,19.8,0,0,1,73.49,24V42H104c0-.42,0-.83,0-1.25C104,26.19,91.13,14.42,75.25,14.42Z"/><path class="cls-4" d="M26.88,198l0,44.36h.81c9.45,0,17.11-7,17.11-15.65V179.25C34.84,189.67,26.88,198,26.88,198Z"/><path class="cls-4" d="M44.78,179v29.26h.59c6.93,0,12.55-5.14,12.55-11.48V164.48C53.5,169.12,49,174.61,44.78,179Z"/><path class="cls-5" d="M31.12,66.73C20.11,57.29,2.88,64.79,2.88,77V193.39S43,152.58,63.11,128.27c7.76-9.35,10.38-23.5-.08-33.19C45.93,79.22,45.16,78.78,31.12,66.73Z"/><path class="cls-6" d="M75.25,11.78H71A3,3,0,0,0,68.58,13a2.44,2.44,0,0,0-.12,2.56A17.31,17.31,0,0,1,70.62,24V42a2.76,2.76,0,0,0,2.87,2.63H104a2.78,2.78,0,0,0,2.88-2.51c0-.45,0-.91,0-1.37C106.87,24.77,92.69,11.78,75.25,11.78ZM99,31.31a21.65,21.65,0,0,0-11.77-3.47H76.37V24a21.78,21.78,0,0,0-1.11-6.91C85.87,17.05,95,22.93,99,31.31ZM76.37,33.1H87.21a15.08,15.08,0,0,1,12.35,6.24H76.37Z"/><path class="cls-6" d="M76.31,74.81,41,43c-9.93-9-11.15-15.34-11.28-17.18v-.76A2.75,2.75,0,0,0,27,22.44a2.83,2.83,0,0,0-3,2.36,6.49,6.49,0,0,0,0,1.14V60.31a21.14,21.14,0,0,0-4.38-.47C8.8,59.84,0,67.55,0,77V193.39a2.62,2.62,0,0,0,1.85,2.45A3,3,0,0,0,5,195.15c.18-.18,8.29-8.45,19-19.69v22.1a1.79,1.79,0,0,0,0,.23c0,.07,0,.14,0,.2v44.36A2.74,2.74,0,0,0,26.74,245c.31,0,.65,0,.93,0h0a20.82,20.82,0,0,0,14.13-5.35,17.43,17.43,0,0,0,5.85-12.93v-16a15.87,15.87,0,0,0,8.63-4,13.44,13.44,0,0,0,4.51-10V165.15c12.48-13.42,24-25.89,24.83-26.83,17.7-21.08,10.92-44.69-2.92-57.75ZM5.75,77c0-7.13,7.17-11.92,13.87-11.92a14.38,14.38,0,0,1,6.07,1.33A45,45,0,0,1,31.94,71l2.56,2.19c3.66,3.13,6.29,5.38,9.07,7.82,4,3.52,8.61,7.73,14,12.74,1.06,1,2.19,2,3.4,3.14,9.51,8.82,6.58,21.61-.17,29.75l-1.51,1.81c-3.46,4.12-7.44,8.66-11.66,13.36V114.14a2.89,2.89,0,0,0-5.75,0V148a1.66,1.66,0,0,0,0,.22c-4,4.42-8.17,8.88-12.19,13.17V130.13a2.89,2.89,0,0,0-5.75,0v37.33c-7.4,7.81-14,14.64-18.24,19ZM41.9,226.71a12.4,12.4,0,0,1-4.17,9.21,14.63,14.63,0,0,1-8,3.68V199L41.9,186.26v40.45ZM55,196.81a8.41,8.41,0,0,1-2.83,6.26,9.92,9.92,0,0,1-4.56,2.35V180c1.9-2,3.88-4.27,5.8-6.45l1.59-1.8Zm26-61.7c-1.24,1.48-33.8,36.49-51.31,55.3v-21c13.13-13.91,23.67-25.5,31.46-34.59l.46-.53.76-.89,1.24-1.47.39-.46,1.34-1.61c8.2-9.89,11.6-25.58-.32-36.63l-.47-.44-.54-.5L62.2,90.56,61,89.42c-5.48-5.06-9-8.28-12.16-11.07q-7.86-7-12.91-11.14c-.88-.75-1.81-1.54-2.8-2.4a21.53,21.53,0,0,0-3.34-2.33V39A57.54,57.54,0,0,0,37,46.76l35.28,31.8,6.35,5.72C90.74,95.72,96.68,116.51,81.06,135.11Z"/><path class="cls-6" d="M53.89,31.31c4,0,7.23-3,7.23-6.62s-3.24-6.61-7.23-6.61-7.23,3-7.23,6.61S49.9,31.31,53.89,31.31Z"/><path class="cls-6" d="M73.49,78.6a3,3,0,0,1-2-.76L37,46.76C25.8,36.66,24.18,28.93,24,26.07a.76.76,0,0,1,0-.15V24C24,10.75,35.75,0,50.18,0S76.37,10.75,76.37,24V76a2.63,2.63,0,0,1-1.77,2.42A3,3,0,0,1,73.49,78.6ZM29.75,25.84C29.89,27.69,31.12,34.07,41,43L70.62,69.68V24c0-10.31-9.17-18.7-20.44-18.7S29.75,13.65,29.75,24Z"/></g></g></svg>